<?xml version="1.0" encoding="UTF-8"?>
<svg width="17px" height="17px" viewBox="0 0 17 17" version="1.1" xmlns="http://www.w3.org/2000/svg" xmlns:xlink="http://www.w3.org/1999/xlink">
    <!-- Generator: Sketch 55.1 (78136) - https://sketchapp.com -->
    <title>Facebook</title>
    <desc>Created with Sketch.</desc>
    <g id="Page-1" stroke="none" stroke-width="1" fill="none" fill-rule="evenodd" opacity="0.42905971">
        <g id="Desktop-HD-1920" transform="translate(-1694.000000, -6588.000000)" fill="#000000" fill-rule="nonzero">
            <g id="Footer" transform="translate(0.000000, 6449.000000)">
                <g id="Socnetworks" transform="translate(1694.000000, 138.000000)">
                    <path d="M17,1.94866071 L17,17.0513393 C17,17.3043157 16.9114585,17.5256696 16.734375,17.7154018 C16.5572915,17.9051339 16.3296129,18 16.0513393,18 L11.7254464,18 L11.7254464,11.3973214 L13.9263393,11.3973214 L14.2678571,8.85491071 L11.7254464,8.85491071 L11.7254464,7.22321429 C11.7254464,6.79315495 11.8013393,6.48958353 11.953125,6.3125 C12.1555058,6.08482143 12.4970236,5.97098214 12.9776786,5.97098214 L14.34375,5.97098214 L14.34375,3.65625 C13.8125,3.60565495 13.1547621,3.58035714 12.3705357,3.58035714 C11.3839286,3.58035714 10.5870536,3.87127995 9.97991071,4.453125 C9.37276786,5.03497005 9.06919643,5.86979147 9.06919643,6.95758929 L9.06919643,8.85491071 L6.86830357,8.85491071 L6.86830357,11.3973214 L9.06919643,11.3973214 L9.06919643,18 L0.948660714,18 C0.670387098,18 0.442708526,17.9051339 0.265625,17.7154018 C0.0885414737,17.5256696 0,17.3043157 0,17.0513393 L0,1.94866071 C0,1.6703871 0.0885414737,1.44270853 0.265625,1.265625 C0.442708526,1.08854147 0.670387098,1 0.948660714,1 L16.0513393,1 C16.3043157,1 16.5256696,1.08854147 16.7154018,1.265625 C16.9051339,1.44270853 17,1.6703871 17,1.94866071 Z" id="Facebook"></path>
                </g>
            </g>
        </g>
    </g>
</svg>