<?xml version="1.0" encoding="UTF-8"?>
<svg width="17px" height="17px" viewBox="0 0 17 17" version="1.1" xmlns="http://www.w3.org/2000/svg" xmlns:xlink="http://www.w3.org/1999/xlink">
    <!-- Generator: Sketch 55.1 (78136) - https://sketchapp.com -->
    <title>Instagram</title>
    <desc>Created with Sketch.</desc>
    <g id="Page-1" stroke="none" stroke-width="1" fill="none" fill-rule="evenodd" opacity="0.42905971">
        <g id="Desktop-HD-1920" transform="translate(-1785.000000, -6588.000000)" fill="#000000" fill-rule="nonzero">
            <g id="Footer" transform="translate(0.000000, 6449.000000)">
                <g id="Socnetworks" transform="translate(1694.000000, 138.000000)">
                    <path d="M99.5,5.13616071 C100.284226,5.13616071 101.011533,5.33221745 101.68192,5.72433036 C102.352307,6.11644326 102.883557,6.64769326 103.27567,7.31808036 C103.667783,7.98846745 103.863839,8.71577362 103.863839,9.5 C103.863839,10.2842264 103.667783,11.0115325 103.27567,11.6819196 C102.883557,12.3523067 102.352307,12.8835567 101.68192,13.2756696 C101.011533,13.6677825 100.284226,13.8638393 99.5,13.8638393 C98.7157736,13.8638393 97.9884675,13.6677825 97.3180804,13.2756696 C96.6476933,12.8835567 96.1164433,12.3523067 95.7243304,11.6819196 C95.3322175,11.0115325 95.1361607,10.2842264 95.1361607,9.5 C95.1361607,8.71577362 95.3322175,7.98846745 95.7243304,7.31808036 C96.1164433,6.64769326 96.6476933,6.11644326 97.3180804,5.72433036 C97.9884675,5.33221745 98.7157736,5.13616071 99.5,5.13616071 Z M99.5,12.3459821 C100.284226,12.3459821 100.954613,12.0677085 101.511161,11.5111607 C102.067709,10.9546129 102.345982,10.2842264 102.345982,9.5 C102.345982,8.71577362 102.067709,8.0453871 101.511161,7.48883929 C100.954613,6.93229147 100.284226,6.65401786 99.5,6.65401786 C98.7157736,6.65401786 98.0453871,6.93229147 97.4888393,7.48883929 C96.9322915,8.0453871 96.6540179,8.71577362 96.6540179,9.5 C96.6540179,10.2842264 96.9322915,10.9546129 97.4888393,11.5111607 C98.0453871,12.0677085 98.7157736,12.3459821 99.5,12.3459821 Z M105.078125,4.94642857 C105.052827,5.22470219 104.945312,5.46502995 104.75558,5.66741071 C104.565848,5.86979147 104.331845,5.97098214 104.053571,5.97098214 C103.775298,5.97098214 103.53497,5.86979147 103.332589,5.66741071 C103.130209,5.46502995 103.029018,5.22470219 103.029018,4.94642857 C103.029018,4.66815495 103.130209,4.42782719 103.332589,4.22544643 C103.53497,4.02306567 103.775298,3.921875 104.053571,3.921875 C104.331845,3.921875 104.572173,4.02306567 104.774554,4.22544643 C104.976934,4.42782719 105.078125,4.66815495 105.078125,4.94642857 Z M107.962054,5.97098214 C107.987351,6.67931567 108,7.85565495 108,9.5 C108,11.144345 107.981027,12.3270089 107.94308,13.0479911 C107.905134,13.7689732 107.797619,14.3950893 107.620536,14.9263393 C107.392857,15.55878 107.045015,16.1090032 106.577009,16.5770089 C106.109003,17.0450147 105.55878,17.3928571 104.926339,17.6205357 C104.395089,17.7976192 103.768973,17.9051339 103.047991,17.9430804 C102.327009,17.9810268 101.144345,18 99.5,18 C97.855655,18 96.6729911,17.9810268 95.9520089,17.9430804 C95.2310268,17.9051339 94.6049107,17.78497 94.0736607,17.5825893 C93.44122,17.3802085 92.8909968,17.0450147 92.4229911,16.5770089 C91.9549853,16.1090032 91.6071429,15.55878 91.3794643,14.9263393 C91.2023808,14.3950893 91.0948661,13.7689732 91.0569196,13.0479911 C91.0189732,12.3270089 91,11.144345 91,9.5 C91,7.85565495 91.0189732,6.67299107 91.0569196,5.95200893 C91.0948661,5.23102679 91.2023808,4.60491071 91.3794643,4.07366071 C91.6071429,3.44122005 91.9549853,2.89099683 92.4229911,2.42299107 C92.8909968,1.95498531 93.44122,1.60714286 94.0736607,1.37946429 C94.6049107,1.20238076 95.2310268,1.09486607 95.9520089,1.05691964 C96.6729911,1.01897321 97.855655,1 99.5,1 C101.144345,1 102.327009,1.01897321 103.047991,1.05691964 C103.768973,1.09486607 104.395089,1.20238076 104.926339,1.37946429 C105.55878,1.60714286 106.109003,1.95498531 106.577009,2.42299107 C107.045015,2.89099683 107.392857,3.44122005 107.620536,4.07366071 C107.797619,4.60491071 107.911459,5.23735138 107.962054,5.97098214 Z M106.140625,14.5089286 C106.292411,14.0788692 106.393601,13.3958335 106.444196,12.4598214 C106.469494,11.9032736 106.482143,11.1190478 106.482143,10.1071429 L106.482143,8.89285714 C106.482143,7.85565495 106.469494,7.07142857 106.444196,6.54017857 C106.393601,5.57886924 106.292411,4.89583353 106.140625,4.49107143 C105.837054,3.70684505 105.293155,3.16294643 104.508929,2.859375 C104.104166,2.70758929 103.421131,2.60639862 102.459821,2.55580357 C101.903274,2.53050576 101.119048,2.51785714 100.107143,2.51785714 L98.8928571,2.51785714 C97.8809522,2.51785714 97.0967264,2.53050576 96.5401786,2.55580357 C95.6041665,2.60639862 94.9211308,2.70758929 94.4910714,2.859375 C93.706845,3.16294643 93.1629464,3.70684505 92.859375,4.49107143 C92.7075893,4.89583353 92.6063986,5.57886924 92.5558036,6.54017857 C92.5305058,7.09672638 92.5178571,7.88095219 92.5178571,8.89285714 L92.5178571,10.1071429 C92.5178571,11.1190478 92.5305058,11.9032736 92.5558036,12.4598214 C92.6063986,13.3958335 92.7075893,14.0788692 92.859375,14.5089286 C93.1882442,15.293155 93.7321429,15.8370536 94.4910714,16.140625 C94.9211308,16.2924107 95.6041665,16.3936014 96.5401786,16.4441964 C97.0967264,16.4694942 97.8809522,16.4821429 98.8928571,16.4821429 L100.107143,16.4821429 C101.144345,16.4821429 101.928571,16.4694942 102.459821,16.4441964 C103.421131,16.3936014 104.104166,16.2924107 104.508929,16.140625 C105.293155,15.8117558 105.837054,15.2678571 106.140625,14.5089286 Z" id="Instagram"></path>
                </g>
            </g>
        </g>
    </g>
</svg>