<?xml version="1.0" encoding="UTF-8"?>
<svg width="20px" height="16px" viewBox="0 0 20 16" version="1.1" xmlns="http://www.w3.org/2000/svg" xmlns:xlink="http://www.w3.org/1999/xlink">
    <!-- Generator: Sketch 55.1 (78136) - https://sketchapp.com -->
    <title>ic_markunread</title>
    <desc>Created with Sketch.</desc>
    <g id="Page-1" stroke="none" stroke-width="1" fill="none" fill-rule="evenodd" opacity="0.497302827">
        <g id="Desktop-HD-1920" transform="translate(-414.000000, -6594.000000)">
            <g id="Footer" transform="translate(0.000000, 6449.000000)">
                <g id="Group" transform="translate(91.000000, 140.000000)">
                    <g id="Group-16" transform="translate(321.000000, 0.000000)">
                        <g id="ic_markunread" transform="translate(0.000000, 1.000000)">
                            <polygon id="Bounds" fill-opacity="0" fill="#FF0000" points="0 0 24 0 24 24 0 24"></polygon>
                            <path d="M20,4 L4,4 C2.9,4 2.01,4.9 2.01,6 L2,18 C2,19.1 2.9,20 4,20 L20,20 C21.1,20 22,19.1 22,18 L22,6 C22,4.9 21.1,4 20,4 L20,4 Z M20,8 L12,13 L4,8 L4,6 L12,11 L20,6 L20,8 L20,8 Z" id="Shape" fill-opacity="0.7" fill="#000000"></path>
                        </g>
                    </g>
                </g>
            </g>
        </g>
    </g>
</svg>