<?xml version="1.0" encoding="UTF-8"?>
<svg width="19px" height="19px" viewBox="0 0 19 19" version="1.1" xmlns="http://www.w3.org/2000/svg" xmlns:xlink="http://www.w3.org/1999/xlink">
    <!-- Generator: Sketch 55.1 (78136) - https://sketchapp.com -->
    <title>Pinterest</title>
    <desc>Created with Sketch.</desc>
    <g id="Page-1" stroke="none" stroke-width="1" fill="none" fill-rule="evenodd" opacity="0.42905971">
        <g id="Desktop-HD-1920" transform="translate(-1973.000000, -6587.000000)" fill="#000000" fill-rule="nonzero">
            <g id="Footer" transform="translate(0.000000, 6449.000000)">
                <g id="Socnetworks" transform="translate(1694.000000, 138.000000)">
                    <path d="M298,9.5 C298,11.2110217 297.572244,12.7943548 296.716734,14.25 C295.861223,15.7056452 294.705645,16.8612233 293.25,17.7167339 C291.794355,18.5722444 290.211022,19 288.5,19 C287.52957,19 286.597446,18.8595428 285.703629,18.578629 C286.316532,17.5571235 286.699597,16.7271507 286.852823,16.0887097 L287.465726,13.828629 C287.618952,14.1350806 287.899865,14.3904572 288.308468,14.5947581 C288.71707,14.7990589 289.163978,14.9012097 289.649194,14.9012097 C290.568548,14.9012097 291.404906,14.6394491 292.158266,14.1159274 C292.911627,13.5924057 293.498992,12.8837364 293.920363,11.9899194 C294.341734,11.0961023 294.552419,10.1192878 294.552419,9.05947581 C294.552419,7.99966378 294.297043,7.0483871 293.78629,6.20564516 C293.275538,5.36290323 292.573252,4.70530894 291.679435,4.2328629 C290.785618,3.76041686 289.789651,3.52419355 288.691532,3.52419355 C287.389113,3.52419355 286.239919,3.79233871 285.243952,4.32862903 C284.350135,4.83938153 283.654234,5.53528226 283.15625,6.41633065 C282.658266,7.29737903 282.409274,8.24865572 282.409274,9.27016129 C282.409274,10.0107525 282.594422,10.7449597 282.964718,11.4727823 C283.335014,12.2006048 283.801075,12.6922041 284.362903,12.9475806 C284.541667,13.0241935 284.643817,12.9858871 284.669355,12.8326613 L284.9375,11.7600806 C284.963038,11.6579299 284.9375,11.5685484 284.860887,11.4919355 C284.656586,11.2365589 284.490591,10.9109541 284.362903,10.515121 C284.235215,10.1192878 284.171371,9.71707009 284.171371,9.30846774 C284.171371,8.59341378 284.34375,7.92305088 284.688508,7.29737903 C285.033266,6.67170718 285.524865,6.16733871 286.163306,5.78427419 C286.827285,5.37567185 287.593414,5.17137097 288.461694,5.17137097 C289.636425,5.17137097 290.594086,5.53528226 291.334677,6.26310484 C292.075269,6.99092742 292.445565,7.91666686 292.445565,9.04032258 C292.445565,10.3172041 292.158266,11.3642475 291.583669,12.1814516 C291.009073,12.9986557 290.300403,13.4072581 289.457661,13.4072581 C288.972446,13.4072581 288.589382,13.234879 288.308468,12.890121 C288.027554,12.5453629 287.938172,12.1431452 288.040323,11.6834677 C288.091398,11.402554 288.206317,10.9939516 288.385081,10.4576613 C288.665994,9.51276862 288.806452,8.85517493 288.806452,8.48487903 C288.806452,8.11458314 288.704301,7.80813153 288.5,7.56552419 C288.295699,7.32291686 288.002016,7.2016129 287.618952,7.2016129 C287.133736,7.2016129 286.725135,7.41868299 286.393145,7.85282258 C286.061156,8.28696217 285.895161,8.8360217 285.895161,9.5 C285.895161,10.0618282 285.984543,10.5342742 286.163306,10.9173387 L285.090726,15.6290323 C284.9375,16.2674733 284.924731,17.1740589 285.052419,18.3487903 C283.239248,17.6592742 281.777218,16.5100806 280.666331,14.9012097 C279.555444,13.2923387 279,11.4919355 279,9.5 C279,7.7889783 279.427756,6.20564516 280.283266,4.75 C281.138777,3.29435484 282.294355,2.13877669 283.75,1.28326613 C285.205645,0.427755571 286.788978,0 288.5,0 C290.211022,0 291.794355,0.427755571 293.25,1.28326613 C294.705645,2.13877669 295.861223,3.29435484 296.716734,4.75 C297.572244,6.20564516 298,7.7889783 298,9.5 Z" id="Pinterest"></path>
                </g>
            </g>
        </g>
    </g>
</svg>