<?xml version="1.0" encoding="UTF-8"?>
<svg width="297px" height="45px" viewBox="0 0 297 45" version="1.1" xmlns="http://www.w3.org/2000/svg" xmlns:xlink="http://www.w3.org/1999/xlink">
    <!-- Generator: Sketch 55.1 (78136) - https://sketchapp.com -->
    <title>Logo_SmakMarkt</title>
    <desc>Created with Sketch.</desc>
    <defs>
        <polygon id="path-1" points="0 0.680702703 23.6994667 0.680702703 23.6994667 34.1851622 0 34.1851622"></polygon>
        <polygon id="path-3" points="0 0 3.63636364 0 3.63636364 9.72972973 0 9.72972973"></polygon>
    </defs>
    <g id="Page-1" stroke="none" stroke-width="1" fill="none" fill-rule="evenodd">
        <g id="Desktop-HD-1920" transform="translate(-94.000000, -6449.000000)">
            <g id="Footer" transform="translate(0.000000, 6449.000000)">
                <g id="Logo_SmakMarkt" transform="translate(94.000000, 0.000000)">
                    <g id="Group-3" transform="translate(0.000000, 10.000000)">
                        <mask id="mask-2" fill="white">
                            <use xlink:href="#path-1"></use>
                        </mask>
                        <g id="Clip-2"></g>
                        <path d="M9.70657778,20.7101622 C8.26035556,20.1851622 6.94746667,19.6535405 5.76435556,19.1115135 C4.58124444,18.5685405 3.56346667,17.9139459 2.71013333,17.1439459 C1.85502222,16.3758378 1.19013333,15.4582703 0.714577778,14.3912432 C0.238133333,13.3251622 -8.88888889e-05,12.0235405 -8.88888889e-05,10.4844865 C-8.88888889e-05,7.51516216 1.07546667,5.138 3.22657778,3.35489189 C5.37768889,1.57178378 8.39191111,0.680702703 12.2683556,0.680702703 C13.6808,0.680702703 14.9945778,0.785702703 16.2096889,0.995702703 C17.4248,1.20475676 18.4674667,1.52827027 19.3385778,1.9652973 C20.2079111,2.40232432 20.8905778,2.96137838 21.3839111,3.64340541 C21.8754667,4.32448649 22.1225778,5.12002703 22.1225778,6.02813514 C22.1225778,6.93718919 21.9252444,7.7157027 21.5314667,8.36178378 C21.1368,9.00881081 20.6603556,9.55935135 20.1021333,10.0134054 C19.3794667,9.52435135 18.4105778,9.09583784 17.1954667,8.72881081 C15.9803556,8.36178378 14.6496889,8.17827027 13.2052444,8.17827027 C11.7261333,8.17827027 10.6425778,8.39678378 9.95191111,8.83286486 C9.26302222,9.27083784 8.91724444,9.82137838 8.91724444,10.4844865 C8.91724444,11.0094865 9.13146667,11.438 9.55813333,11.770027 C9.9848,12.1020541 10.6248,12.4085405 11.4799111,12.6875946 L14.0914667,13.5786757 C17.1785778,14.6267838 19.5519111,15.9643514 21.2105778,17.5894865 C22.8692444,19.2155676 23.6994667,21.4271892 23.6994667,24.2234054 C23.6994667,27.1936757 22.5981333,29.5982703 20.3981333,31.4324595 C18.1972444,33.2675946 14.9608,34.1851622 10.6914667,34.1851622 C9.18035556,34.1851622 7.77591111,34.0536757 6.47902222,33.7916486 C5.18035556,33.5305676 4.04791111,33.1455676 3.07902222,32.6385405 C2.11013333,32.1324595 1.35457778,31.5034054 0.812355556,30.7504324 C0.271022222,29.9993514 -8.88888889e-05,29.1347568 -8.88888889e-05,28.1557027 C-8.88888889e-05,27.1425946 0.279022222,26.2770541 0.837244444,25.560027 C1.39546667,24.8439459 2.00257778,24.2934054 2.66035556,23.9084054 C3.57946667,24.6774595 4.7048,25.3415135 6.03546667,25.9005676 C7.36524444,26.4605676 8.81946667,26.7396216 10.3954667,26.7396216 C12.0052444,26.7396216 13.1376889,26.4775946 13.7963556,25.9535405 C14.4523556,25.4285405 14.7812444,24.8184054 14.7812444,24.1184054 C14.7812444,23.4193514 14.5181333,22.8858378 13.9928,22.5188108 C13.4665778,22.1517838 12.7279111,21.7942162 11.7750222,21.4432703 L9.70657778,20.7101622 Z" id="Fill-1" fill="#FF3F00" mask="url(#mask-2)"></path>
                    </g>
                    <path d="M43.4774976,18.5653222 C44.8619222,18.9410222 46.0614408,19.5063444 47.0779499,20.2595166 C48.1295436,19.6046998 49.311994,19.064188 50.6262491,18.6388672 C51.9405043,18.2135465 53.5250067,18 55.3835493,18 C56.7139245,18 58.0186973,18.1648118 59.2978677,18.4917771 C60.5770381,18.8187425 61.7158696,19.3344439 62.7153104,20.0388814 C63.7138029,20.7433189 64.5103212,21.6754803 65.1058134,22.8380237 C65.7013056,23.999681 66,25.4165308 66,27.0868009 L66,42.5578436 C65.6491527,42.6561991 65.0972793,42.7545545 64.3443799,42.8529099 C63.5905322,42.9503792 62.8110822,43 62.0050816,43 C61.2341657,43 60.5419534,42.9503792 59.9293929,42.8529099 C59.3158842,42.7545545 58.7990955,42.5578436 58.379027,42.2636634 C57.9580102,41.9685972 57.6337134,41.5680868 57.4061368,41.059474 C57.1776119,40.5526334 57.0647718,39.8898419 57.0647718,39.0702134 L57.0647718,27.3313603 C57.0647718,26.3495782 56.7670257,25.6371659 56.1715335,25.1950096 C55.575093,24.7537393 54.7690924,24.532218 53.7535316,24.532218 C53.2623453,24.532218 52.7370225,24.6385482 52.176615,24.8512086 C51.6152593,25.0656412 51.1951907,25.2862763 50.9154611,25.5140001 C50.9495976,25.6460268 50.9676141,25.7691926 50.9676141,25.8826115 L50.9676141,26.2024881 L50.9676141,42.5578436 C50.581682,42.6561991 50.0127404,42.7545545 49.259841,42.8529099 C48.5059933,42.9503792 47.7436116,43 46.9726957,43 C46.2017798,43 45.5086192,42.9503792 44.897007,42.8529099 C44.2834983,42.7545545 43.7667096,42.5578436 43.3456928,42.2636634 C42.9256243,41.9685972 42.6013275,41.5680868 42.3737509,41.059474 C42.1461742,40.5526334 42.0323859,39.8898419 42.0323859,39.0702134 L42.0323859,27.3313603 C42.0323859,26.3495782 41.7080892,25.6371659 41.0594957,25.1950096 C40.4118505,24.7537393 39.6314523,24.532218 38.7201974,24.532218 C38.0896205,24.532218 37.5462812,24.6234848 37.0920762,24.8024739 C36.6359746,24.9832353 36.2509908,25.1542497 35.9352282,25.3181754 L35.9352282,42.5578436 C35.5843809,42.6561991 35.0325075,42.7545545 34.2796081,42.8529099 C33.5257604,42.9503792 32.7463104,43 31.9403098,43 C31.1693939,43 30.4771816,42.9503792 29.8636728,42.8529099 C29.2511124,42.7545545 28.7343237,42.5578436 28.3142551,42.2636634 C27.8932383,41.9685972 27.5689416,41.5680868 27.341365,41.059474 C27.1128401,40.5526334 27,39.8898419 27,39.0702134 L27,24.2380379 C27,23.3537251 27.201026,22.6501737 27.6049746,22.1256114 C28.0060784,21.6019352 28.5589,21.1110442 29.2605947,20.6520522 C30.4506309,19.8660948 31.9317756,19.2281137 33.7011841,18.7363366 C35.4705925,18.2454455 37.3187046,18 39.2464684,18 C40.683046,18 42.093073,18.1887361 43.4774976,18.5653222 Z" id="Fill-4" fill="#FF3F00"></path>
                    <path d="M79.5004471,37.0040828 C80.061161,37.0040828 80.6808974,36.94825 81.358762,36.8348397 C82.0357323,36.7223017 82.5401065,36.5687616 82.8709903,36.3750916 L82.8709903,32.5069268 L79.3010226,32.7974317 C78.3763366,32.8619883 77.6170924,33.0556583 77.0215016,33.3775692 C76.4259108,33.7003524 76.1290097,34.183655 76.1290097,34.8283491 C76.1290097,35.4730432 76.3847739,35.9973479 76.8980909,36.3995184 C77.4096193,36.8034337 78.2770714,37.0040828 79.5004471,37.0040828 M79.1033866,18 C80.8883705,18 82.5150667,18.1770946 83.9861581,18.5312838 C85.4563552,18.8863454 86.711925,19.4263531 87.7537618,20.1521792 C88.7947043,20.877133 89.5950853,21.7957567 90.1575878,22.9080504 C90.7191959,24.0203441 91,25.3341592 91,26.8486234 L91,37.6810552 C91,38.5194193 90.7603328,39.2033709 90.2818928,39.7363995 C89.8025584,40.2676833 89.2320075,40.7274313 88.5720285,41.1147713 C86.4221782,42.3710088 83.3986158,43 79.5004471,43 C77.7476574,43 76.1701466,42.837736 74.7661262,42.5166975 C73.3612116,42.1947866 72.1548272,41.7114841 71.1469731,41.0659176 C70.1391189,40.4212234 69.3628835,39.5994347 68.8182667,38.599679 C68.2718613,37.6007956 68,36.4405206 68,35.1179816 C68,32.8933943 68.6760761,31.1852601 70.0318053,29.9927068 C71.3866402,28.8001535 73.4846223,28.057752 76.32754,27.7681195 L82.8209106,27.091147 L82.8209106,26.7526608 C82.8209106,25.8183341 82.3997045,25.1492131 81.5572923,24.7452978 C80.7139858,24.3422549 79.5004471,24.1416059 77.9139935,24.1416059 C76.6575295,24.1416059 75.435048,24.2698468 74.245655,24.5280734 C73.0562619,24.7863 71.982231,25.1082109 71.0235623,25.4955508 C70.5934134,25.2050459 70.2303355,24.7627456 69.9334344,24.1651603 C69.635639,23.5693199 69.4871885,22.9490526 69.4871885,22.3034861 C69.4871885,21.465122 69.692873,20.7968734 70.1060306,20.2969955 C70.5191881,19.7971176 71.1550216,19.3705203 72.0153194,19.0154587 C72.9730938,18.6612695 74.1043586,18.4039153 75.4109024,18.2416513 C76.7156577,18.081132 77.9461876,18 79.1033866,18" id="Fill-6" fill="#FF3F00"></path>
                    <path d="M118,37.9325489 C117.836836,39.5695514 117.392959,40.8229845 116.663107,41.6937907 C115.934132,42.5636545 114.871811,43 113.477898,43 C112.440139,43 111.515542,42.7295223 110.706739,42.1904518 C109.896182,41.6504389 109.02071,40.7372233 108.080323,39.4470354 L103.266982,32.9697076 L103.266982,42.4769508 C102.909951,42.5466907 102.382738,42.6418762 101.68622,42.7643923 C100.988825,42.8869083 100.284412,42.9472239 99.571227,42.9472239 C98.8580419,42.9472239 98.2167894,42.8953902 97.6509783,42.7907803 C97.0825356,42.6861705 96.6044472,42.4769508 96.2158358,42.1640638 C95.8272245,41.8502343 95.5272131,41.4242555 95.3166787,40.8842426 C95.1052672,40.3451721 95,39.6402337 95,38.7684851 L95,8.52210674 C95.3570312,8.4174969 95.883367,8.30534762 96.580762,8.1828316 C97.2772798,8.06125801 97.9825699,8 98.695755,8 C99.4089401,8 100.049315,8.0518337 100.616881,8.15738597 C101.183569,8.26105337 101.662535,8.47027304 102.051146,8.78410254 C102.440635,9.09698961 102.739769,9.52391082 102.95118,10.0629813 C103.160838,10.6029942 103.266982,11.308875 103.266982,12.1787388 L103.266982,25.970273 L111.629582,16.7759169 C113.315611,16.7759169 114.669171,17.17645 115.690263,17.9775163 C116.711354,18.7785826 117.2219,19.7888685 117.2219,21.0074317 C117.2219,21.5295385 117.141195,22.0092358 116.978908,22.4436965 C116.815744,22.8790996 116.565735,23.323927 116.225371,23.7762938 C115.885007,24.2286607 115.447271,24.708358 114.912163,25.2125586 C114.377055,25.7177015 113.75247,26.3010663 113.040162,26.9617104 L110.219879,29.5741289 L118,37.9325489 Z" id="Fill-8" fill="#FF3F00"></path>
                    <path d="M144.248548,36.1248869 C143.802555,36.4932127 143.226481,36.7846154 142.524042,37.0027149 C141.819744,37.2208145 141.003949,37.3285068 140.077584,37.3285068 C138.841812,37.3285068 137.818815,37.1782805 137.01324,36.8769231 C136.205807,36.5764706 135.681765,36.0579186 135.441115,35.3221719 C134.479443,32.3791855 133.690592,29.9972851 133.072706,28.1737557 C132.45482,26.3511312 131.973519,24.7556561 131.630662,23.3828054 L131.373287,23.3828054 C131.270151,25.3574661 131.193031,27.1538462 131.141928,28.7755656 C131.089895,30.39819 131.055517,31.9782805 131.037863,33.5158371 C131.021138,35.0542986 130.987689,36.6099548 130.935656,38.1809955 C130.883624,39.7538462 130.806504,41.4923077 130.703368,43.39819 C130.256446,43.5665158 129.672938,43.7067873 128.951916,43.8244344 C128.231823,43.9420814 127.509872,44 126.789779,44 C125.278049,44 124.101742,43.7656109 123.260859,43.2977376 C122.419977,42.8298643 122,41.9773756 122,40.7402715 L123.493148,15.1574661 C123.767247,14.7221719 124.368409,14.2542986 125.295703,13.7520362 C126.222997,13.2506787 127.527526,13 129.209292,13 C131.029501,13 132.45482,13.2751131 133.484321,13.8280543 C134.51475,14.3791855 135.270151,15.2742081 135.750523,16.5113122 C136.05993,17.3131222 136.394425,18.2334842 136.755865,19.2696833 C137.115447,20.3067873 137.475958,21.3764706 137.837398,22.480543 C138.19698,23.5846154 138.549129,24.679638 138.891986,25.7665158 C139.234843,26.8533937 139.54518,27.8316742 139.81928,28.7004525 L140.077584,28.7004525 C140.900813,25.8914027 141.724971,23.1746606 142.549129,20.5493213 C143.373287,17.9239819 144.127758,15.7257919 144.815331,13.9529412 C145.330081,13.6859729 145.990708,13.4606335 146.798142,13.2751131 C147.604646,13.0923077 148.505923,13 149.501974,13 C151.184669,13 152.557027,13.2425339 153.622764,13.7266968 C154.685714,14.2126697 155.3036,14.9058824 155.476423,15.8090498 C155.613008,16.478733 155.759814,17.5067873 155.914983,18.8932127 C156.069222,20.281448 156.230894,21.8452489 156.403717,23.5846154 C156.57561,25.3230769 156.746574,27.1628959 156.918467,29.1013575 C157.089431,31.041629 157.252962,32.9058824 157.40813,34.6950226 C157.562369,36.4841629 157.691521,38.1230769 157.793728,39.6117647 C157.896864,41.0995475 157.965621,42.2443439 158,43.0470588 C157.416492,43.3819005 156.806969,43.6235294 156.171429,43.7746606 C155.535889,43.9248869 154.721022,44 153.724971,44 C152.420441,44 151.321254,43.7828054 150.429268,43.3475113 C149.535424,42.9140271 149.055981,42.0615385 148.987224,40.7891403 C148.780952,37.1447964 148.6518,33.8669683 148.601626,30.9574661 C148.549593,28.0479638 148.472474,25.6072398 148.369338,23.6334842 L148.111034,23.6334842 C147.768177,24.9384615 147.270151,26.5773756 146.617886,28.5502262 C145.965621,30.5239819 145.175842,33.0488688 144.248548,36.1248869" id="Fill-10" fill="#68B000"></path>
                    <path d="M172.5,37.0040828 C173.06163,37.0040828 173.68139,36.94825 174.359281,36.8348397 C175.036278,36.7223017 175.539778,36.5687616 175.871569,36.3750916 L175.871569,32.5069268 L172.301462,32.7974317 C171.375846,32.8619883 170.616572,33.0556583 170.021852,33.3775692 C169.426238,33.7003524 169.128431,34.183655 169.128431,34.8283491 C169.128431,35.4730432 169.3851,35.9973479 169.897543,36.3995184 C170.409091,36.8034337 171.277471,37.0040828 172.5,37.0040828 M172.103818,18 C173.887977,18 175.515631,18.1770946 176.98678,18.5312838 C178.45614,18.8863454 179.712653,19.4263531 180.753636,20.1521792 C181.795513,20.877133 182.595925,21.7957567 183.158449,22.9080504 C183.720079,24.0203441 184,25.3341592 184,26.8486234 L184,37.6810552 C184,38.5194193 183.761218,39.2033709 183.281865,39.7363995 C182.802512,40.2676833 182.232833,40.7274313 181.571934,41.1147713 C179.422894,42.3710088 176.399215,43 172.5,43 C170.748036,43 169.16957,42.837736 167.765495,42.5166975 C166.36142,42.1947866 165.154989,41.7114841 164.147095,41.0659176 C163.138308,40.4212234 162.362042,39.5994347 161.817404,38.599679 C161.271872,37.6007956 161,36.4405206 161,35.1179816 C161,32.8933943 161.676102,31.1852601 163.031884,29.9927068 C164.386772,28.8001535 166.483941,28.057752 169.326969,27.7681195 L175.821487,27.091147 L175.821487,26.7526608 C175.821487,25.8183341 175.39937,25.1492131 174.557819,24.7452978 C173.71448,24.3422549 172.5,24.1416059 170.914379,24.1416059 C169.656972,24.1416059 168.435337,24.2698468 167.245003,24.5280734 C166.055564,24.7863 164.981492,25.1082109 164.022786,25.4955508 C163.593514,25.2050459 163.230422,24.7627456 162.932615,24.1651603 C162.635703,23.5693199 162.486352,22.9490526 162.486352,22.3034861 C162.486352,21.465122 162.692044,20.7968734 163.106112,20.2969955 C163.519286,19.7971176 164.155144,19.3705203 165.014581,19.0154587 C165.972393,18.6612695 167.104596,18.4039153 168.410296,18.2416513 C169.715997,18.081132 170.946574,18 172.103818,18" id="Fill-12" fill="#68B000"></path>
                    <path d="M197.475268,42.5569643 C197.142517,42.6555153 196.619108,42.7540663 195.905042,42.8526174 C195.189176,42.9502806 194.450828,43 193.686399,43 C192.955245,43 192.297836,42.9502806 191.71777,42.8526174 C191.135005,42.7540663 190.644871,42.5569643 190.246469,42.262199 C189.848066,41.9665459 189.540496,41.565239 189.324657,41.0565026 C189.107919,40.5477662 189,39.8836565 189,39.0623979 L189,24.2992755 C189,23.5446054 189.141195,22.8955892 189.424483,22.3548903 C189.705973,21.8141913 190.113368,21.3303147 190.644871,20.9032602 C191.176374,20.4770935 191.833783,20.09088 192.6144,19.7472832 C193.395017,19.4019106 194.23409,19.0991548 195.132519,18.836352 C196.030048,18.5735493 196.959054,18.3684566 197.923134,18.2210739 C198.887214,18.0736913 199.851293,18 200.815373,18 C202.409882,18 203.673438,18.3036437 204.603343,18.9100433 C205.533249,19.5173308 206,20.509056 206,21.8878827 C206,22.3468996 205.931651,22.797926 205.800349,23.2409617 C205.666349,23.6839974 205.500873,24.0853044 205.301222,24.4466581 C204.603343,24.4466581 203.888378,24.4795085 203.157224,24.5452092 C202.426969,24.6109099 201.712003,24.7094609 201.015024,24.8399744 C200.316246,24.9713758 199.659737,25.1116557 199.045495,25.2590383 C198.430355,25.4064209 197.906047,25.5786633 197.475268,25.7757653 L197.475268,42.5569643 Z" id="Fill-14" fill="#68B000"></path>
                    <path d="M231,38.9325489 C230.836836,40.5695514 230.392959,41.8229845 229.663107,42.6937907 C228.934132,43.5636545 227.871811,44 226.477898,44 C225.440139,44 224.515542,43.7295223 223.706739,43.1904518 C222.896182,42.6504389 222.02071,41.7372233 221.080323,40.4470354 L216.266982,33.9697076 L216.266982,43.4769508 C215.909951,43.5466907 215.382738,43.6418762 214.68622,43.7643923 C213.988825,43.8869083 213.284412,43.9472239 212.571227,43.9472239 C211.858042,43.9472239 211.216789,43.8953902 210.650978,43.7907803 C210.082536,43.6861705 209.604447,43.4769508 209.215836,43.1640638 C208.827225,42.8502343 208.527213,42.4242555 208.316679,41.8842426 C208.105267,41.3451721 208,40.6402337 208,39.7684851 L208,9.52210674 C208.357031,9.4174969 208.883367,9.30534762 209.580762,9.1828316 C210.27728,9.06125801 210.98257,9 211.695755,9 C212.40894,9 213.049315,9.0518337 213.616881,9.15738597 C214.183569,9.26105337 214.662535,9.47027304 215.051146,9.78410254 C215.440635,10.0969896 215.739769,10.5239108 215.95118,11.0629813 C216.160838,11.6029942 216.266982,12.308875 216.266982,13.1787388 L216.266982,26.970273 L224.629582,17.7759169 C226.315611,17.7759169 227.669171,18.17645 228.690263,18.9775163 C229.711354,19.7785826 230.2219,20.7888685 230.2219,22.0074317 C230.2219,22.5295385 230.141195,23.0092358 229.978908,23.4436965 C229.815744,23.8790996 229.565735,24.323927 229.225371,24.7762938 C228.885007,25.2286607 228.447271,25.708358 227.912163,26.2125586 C227.377055,26.7177015 226.75247,27.3010663 226.040162,27.9617104 L223.219879,30.5741289 L231,38.9325489 Z" id="Fill-16" fill="#68B000"></path>
                    <path d="M242.506965,34.7205127 C242.506965,35.6044924 242.785567,36.2336726 243.341859,36.6071333 C243.899064,36.9815139 244.683718,37.1673244 245.696734,37.1673244 C246.202786,37.1673244 246.72528,37.1250111 247.266042,37.0403846 C247.805892,36.9566778 248.278146,36.8453755 248.683718,36.7092371 C248.987897,37.0826978 249.249144,37.4993917 249.468372,37.9583989 C249.6876,38.417406 249.797214,38.9702383 249.797214,39.6150559 C249.797214,40.9083707 249.316739,41.9606837 248.353962,42.7765942 C247.393012,43.5925047 245.696734,44 243.266042,44 C240.295501,44 238.008221,43.3202279 236.405115,41.9606837 C234.801096,40.6020593 234,38.3916501 234,35.3322157 L234,13.510519 C234.371774,13.4084152 234.903403,13.2980327 235.595798,13.1793715 C236.286367,13.0597905 237.020781,13 237.798127,13 C239.283398,13 240.438,13.2639981 241.266499,13.7910744 C242.093172,14.3181508 242.506965,15.4311741 242.506965,17.1301445 L242.506965,20.3928667 L249.13953,20.3928667 C249.341402,20.7672473 249.535967,21.2345331 249.721398,21.7947242 C249.907741,22.356755 250,22.9758167 250,23.6565087 C250,24.8467998 249.738753,25.7041037 249.215346,26.2311801 C248.691939,26.7582564 247.991322,27.0213347 247.11441,27.0213347 L242.506965,27.0213347 L242.506965,34.7205127 Z" id="Fill-18" fill="#68B000"></path>
                    <g id="Group-19" transform="translate(257.000000, 0.000000)">
                        <path d="M13.0050418,34.0540541 C11.0474474,34.053246 10.3881779,33.3017497 9.23604377,31.9377434 C8.08788528,30.5769694 7.6171721,28.7507525 7.91295808,26.7944379 L8.18579756,15.976123 C8.18818293,15.9567295 8.19454392,15.9042056 8.1468365,15.8492575 C8.09912909,15.7943094 8.04585581,15.7943094 8.02677284,15.7943094 L2.38537083,15.7943094 C1.06785101,15.7943094 0,14.709084 0,13.3701277 C0,12.0311713 1.06785101,10.9459459 2.38537083,10.9459459 L8.02677284,10.9459459 C9.43970749,10.9459459 10.787442,11.5633042 11.7233025,12.640449 C12.6583679,13.7167856 13.0948907,15.1510932 12.9191684,16.576512 L12.6375826,27.4618959 C12.5469385,28.0663252 12.6288362,28.5107585 12.8570367,28.7806508 C13.0876225,29.0545833 13.5146039,29.2056906 14.0584685,29.2056906 L26.7716999,29.2056906 C28.4136301,29.2048826 30.3720196,27.8772391 31.2681239,26.1706151 L34.0383345,19.405532 L19.5694702,19.405532 C18.2519504,19.405532 17.1840994,18.3194986 17.1840994,16.9813503 C17.1840994,15.642394 18.2519504,14.5571686 19.5694702,14.5571686 L37.6148005,14.5571686 C38.4123095,14.5571686 39.1565452,14.962007 39.5994291,15.6359295 C40.0415178,16.309852 40.1234155,17.163972 39.8164978,17.9122361 L35.6333525,28.129354 C35.6087037,28.1875343 35.5832597,28.2457147 35.5546353,28.3014709 C33.8514805,31.6864366 30.2408242,34.0516299 26.7732901,34.0540541 L13.0050418,34.0540541 Z" id="Fill-33" fill="#68B000"></path>
                        <path d="M13.6345155,35.2702703 C11.091354,35.2702703 8.35113001,37.4480437 7.51503324,40.1355635 C7.51503324,40.1372769 7.51422228,40.1381336 7.51422228,40.1398471 C6.68299126,42.8230833 8.06648407,44.9974299 10.6064017,45 C13.1487522,45 15.8889762,42.8213698 16.725884,40.1355635 C17.5619807,37.4480437 16.1784879,35.2702703 13.6345155,35.2702703" id="Fill-35" fill="#68B000"></path>
                        <path d="M26.9684766,35.2702703 C24.4272125,35.2702703 21.6889072,37.4454736 20.8512793,40.1312799 C20.0128405,42.817943 21.3937508,44.9974299 23.9366366,45 L23.940691,45 C26.4811442,44.9974299 29.2170169,42.8230833 30.0578883,40.1398471 C30.896327,37.453184 29.5146059,35.2728404 26.9725309,35.2702703 L26.9684766,35.2702703 Z" id="Fill-37" fill="#68B000"></path>
                        <g id="Group-41" transform="translate(23.030303, 0.000000)">
                            <mask id="mask-4" fill="white">
                                <use xlink:href="#path-3"></use>
                            </mask>
                            <g id="Clip-40"></g>
                            <path d="M1.81818182,9.72972973 C0.813818182,9.72972973 0,8.77860126 0,7.60477784 L0,2.12495189 C0,0.951128468 0.813818182,0 1.81818182,0 C2.82254545,0 3.63636364,0.951128468 3.63636364,2.12495189 L3.63636364,7.60477784 C3.63636364,8.77860126 2.82254545,9.72972973 1.81818182,9.72972973" id="Fill-39" fill="#68B000" mask="url(#mask-4)"></path>
                        </g>
                        <path d="M32.2049439,9.72972973 C31.718054,9.72972973 31.2319249,9.54345149 30.8599106,9.17089501 C30.1174035,8.42501863 30.1174035,7.21650038 30.8599106,6.47138743 L34.3290009,2.99088543 C35.0722688,2.24653591 36.2757997,2.24577248 37.0183067,2.99164886 C37.7615745,3.73676182 37.7615745,4.94528006 37.0183067,5.69039301 L33.5499771,9.17089501 C33.1779628,9.54345149 32.6918337,9.72972973 32.2049439,9.72972973" id="Fill-42" fill="#68B000"></path>
                        <path d="M17.7058195,9.72972973 C17.2350564,9.72972973 16.7656442,9.50833871 16.43199,9.07548111 L13.7492484,5.59506167 C13.1359731,4.80034427 13.2095932,3.59490837 13.9126984,2.90248888 C14.6158037,2.2100694 15.6822812,2.29175505 16.2948811,3.08723587 L18.9782981,6.56689189 C19.590898,7.36160929 19.5179533,8.56780861 18.8148481,9.26022809 C18.4947022,9.57475602 18.0995854,9.72972973 17.7058195,9.72972973" id="Fill-44" fill="#68B000"></path>
                    </g>
                </g>
            </g>
        </g>
    </g>
</svg>