<?xml version="1.0" encoding="UTF-8"?>
<svg width="60px" height="60px" viewBox="0 0 60 60" version="1.1" xmlns="http://www.w3.org/2000/svg" xmlns:xlink="http://www.w3.org/1999/xlink">
    <!-- Generator: Sketch 55.1 (78136) - https://sketchapp.com -->
    <title>AddButton</title>
    <desc>Created with Sketch.</desc>
    <defs>
        <polygon id="path-1" points="8.80839053e-07 0.0101446707 33.814099 0.0101446707 33.814099 21.0373837 8.80839053e-07 21.0373837"></polygon>
    </defs>
    <g id="AddButton" stroke="none" stroke-width="1" fill="none" fill-rule="evenodd">
        <g id="Group-8">
            <rect id="Rectangle" fill="#FFAC01" x="0" y="0" width="60" height="60" rx="30"></rect>
            <g transform="translate(12.000000, 16.000000)">
                <g id="Group-3">
                    <mask id="mask-2" fill="white">
                        <use xlink:href="#path-1"></use>
                    </mask>
                    <g id="Clip-2"></g>
                    <path d="M32.6851629,4.87406602 L30.6160725,4.87406602 L25.6856809,4.87406602 L19.7075449,4.87406602 L14.5405828,4.87406602 C13.7069535,4.87406602 12.8695691,4.85833785 12.0359398,4.87406602 L11.998389,4.87406602 C11.4088403,4.87406602 10.8455773,5.41668794 10.8718629,6.0536789 C10.8981485,6.69460189 11.3675344,7.23329177 11.998389,7.23329177 L14.0674419,7.23329177 L18.997871,7.23329177 L24.9759694,7.23329177 L30.1429691,7.23329177 C30.4867097,7.23329177 30.8310888,7.23722381 31.1755804,7.24029081 C30.8764127,8.29698802 30.5772824,9.35368523 30.2781147,10.4103824 C29.902606,11.7354809 29.5270973,13.0645114 29.1515886,14.3896099 C28.8249336,15.5377664 28.5019961,16.6819909 28.175266,17.8301474 C28.0963716,18.109637 28.013647,18.3881436 27.9323494,18.6676726 L26.8873087,18.6676726 L22.3548812,18.6676726 L16.9137978,18.6676726 L12.1786331,18.6676726 C11.7062808,18.6676726 11.232539,18.6587468 10.7599989,18.6574099 C10.6946228,18.3318368 10.6292843,18.0062636 10.5639458,17.6807298 C10.2635388,16.1983496 9.96688694,14.7120374 9.66647999,13.2296572 C9.30223655,11.4287816 8.94174821,9.62397386 8.57750477,7.82309821 C8.26583256,6.26994126 7.95416034,4.72071635 7.63873304,3.1675594 C7.48852956,2.4165392 7.36461169,1.64979084 7.18436752,0.906634726 C7.18061243,0.894838597 7.18061243,0.886974512 7.17685734,0.875178383 C7.07547,0.37187689 6.56477817,0.0101289425 6.09163722,0.0101289425 L1.74700163,0.0101289425 L1.12741228,0.0101289425 C0.537863633,0.0101289425 -0.0253994081,0.552750864 0.000886200518,1.18974182 C0.030926896,1.82673277 0.496557677,2.36935469 1.12741228,2.36935469 L5.18005231,2.36935469 C5.24610429,2.69834872 5.31211872,3.02730343 5.3781707,3.35629746 C5.67857765,4.83867764 5.97522952,6.32498986 6.27563648,7.80737003 C6.63987991,9.60824569 7.00036826,11.4130534 7.36461169,13.213929 C7.67628391,14.767086 7.98795612,16.3163109 8.30338343,17.8694678 C8.4535869,18.620488 8.57750477,19.3872364 8.75774895,20.1303925 C8.76150403,20.1421886 8.76150403,20.1500527 8.76525912,20.1618489 C8.86664647,20.6651504 9.37733829,21.0268983 9.85047925,21.0268983 L11.739288,21.0268983 L16.2716779,21.0268983 L21.7127989,21.0268983 L26.447926,21.0268983 C27.2140013,21.0268983 27.9837941,21.0504906 28.7460767,21.0268983 L28.7760799,21.0268983 C29.2792991,21.0268983 29.7223993,20.6572863 29.8613376,20.1618489 C29.9890105,19.7057319 30.1204385,19.2496149 30.2481115,18.7934979 C30.5597462,17.6925259 30.8714559,16.5915539 31.1831282,15.4905819 C31.5586368,14.1654834 31.9341455,12.8364529 32.3096542,11.5113545 C32.6363468,10.3631979 32.9592843,9.21897344 33.2859768,8.07081691 C33.4436905,7.51246682 33.6164245,6.95411672 33.7628729,6.39183459 C33.766628,6.3839705 33.766628,6.37610641 33.7703455,6.36824233 C33.9806679,5.62901826 33.4023845,4.87406602 32.6851629,4.87406602" id="Fill-1" fill="#FFFFFF" mask="url(#mask-2)"></path>
                </g>
                <path d="M27.6103258,26.5440009 C27.6028817,26.5485619 27.5968311,26.5522472 27.5945209,26.5537432 C27.5032118,26.6134379 27.4080889,26.6655065 27.3106925,26.7130871 C27.2142129,26.745598 27.1160464,26.7721249 27.0162664,26.7929597 C26.8903405,26.801352 26.7654413,26.8014614 26.6409089,26.7931421 C26.5403588,26.7722344 26.4414956,26.7454521 26.3443926,26.7126492 C26.2545503,26.6688999 26.1663581,26.6213923 26.0800728,26.5683385 C26.068705,26.5608219 26.0573739,26.5526121 26.0460428,26.5445482 C26.0010849,26.5048855 25.9578506,26.4649675 25.9150563,26.4223858 C25.8724087,26.3799865 25.8324747,26.335398 25.7927974,26.2921595 C25.7882503,26.2847524 25.7845466,26.2786953 25.7830065,26.2764331 C25.7230138,26.1855775 25.6706852,26.0909272 25.6229038,25.9940146 C25.5893138,25.8953871 25.5619944,25.7950081 25.5407989,25.6928412 C25.5364352,25.6334385 25.5336482,25.5742546 25.5336482,25.5138667 C25.5336482,25.4534058 25.5364352,25.394222 25.5407989,25.3348192 C25.5621044,25.2322875 25.5895705,25.1315071 25.6232705,25.0324782 C25.6673116,24.9431187 25.7150197,24.8553646 25.768375,24.7694715 C25.7759291,24.7581966 25.7841432,24.7469218 25.7922841,24.7356104 C25.832108,24.6909489 25.8722621,24.6478564 25.9150563,24.6052747 C25.9576673,24.5628754 26.0024417,24.5231033 26.0459327,24.4836596 C26.0533768,24.4790986 26.0594274,24.4754498 26.0617377,24.4739537 C26.1530101,24.4142226 26.2481696,24.362154 26.345566,24.3145734 C26.442009,24.2820624 26.5401388,24.2555355 26.6399555,24.2347008 C26.7659181,24.2263085 26.8908172,24.2262355 27.015313,24.2345183 C27.1158997,24.2554261 27.2147262,24.2822084 27.311866,24.3150113 C27.4017083,24.3587606 27.4899004,24.4062682 27.5761857,24.459322 C27.5875535,24.4668386 27.5988846,24.4750484 27.6102158,24.4831488 C27.6551369,24.5227749 27.6984079,24.562693 27.7412022,24.6052747 C27.7838131,24.6476739 27.8237838,24.6922625 27.8634244,24.7355375 C27.8679715,24.7429446 27.8717119,24.7489651 27.8732154,24.7512274 C27.9332447,24.8420829 27.9855366,24.9367333 28.0333547,25.0336459 C28.0660647,25.1296098 28.0926873,25.2273251 28.1136261,25.3266094 C28.1220603,25.4519098 28.1221703,25.576225 28.1138095,25.7001024 C28.0927974,25.8001529 28.065918,25.8985251 28.0329147,25.9951822 C27.988947,26.0845418 27.9412022,26.1722958 27.8878835,26.258189 C27.8803294,26.2695003 27.8720786,26.2807387 27.8639378,26.29205 C27.8241138,26.336748 27.7839965,26.3798041 27.7412022,26.4223858 C27.6985913,26.464785 27.6538168,26.5045571 27.6103258,26.5440009 M27.6476929,26.6049934 C27.7148197,26.5361184 27.7692206,26.4810184 27.7692206,26.4846434 C27.7692206,26.5030101 27.7100596,26.5547267 27.6476929,26.6049934 M25.8162628,26.3293044 C25.8856552,26.3961443 25.9410719,26.4501378 25.9373045,26.4501378 C25.9189538,26.4501378 25.8666969,26.3914114 25.8162628,26.3293044 M26.0842189,24.5070122 C26.017092,24.5758872 25.9626911,24.6309872 25.9626911,24.6273622 C25.9626911,24.6091164 26.0218521,24.5572789 26.0842189,24.5070122 M27.9247742,24.7735426 C27.8553818,24.7067994 27.8000867,24.6527093 27.803854,24.6527093 C27.8220832,24.6527093 27.8743401,24.7114357 27.9247742,24.7735426 M28.375599,22.3904425 C27.6421923,22.0511025 26.8831164,21.959882 26.0874069,22.1094836 C24.5141763,22.4146706 23.3891672,23.8821885 23.3359585,25.4378254 C23.3343817,25.4628927 23.3332816,25.4881426 23.3333718,25.5138667 C23.3331349,25.5367813 23.334015,25.5596594 23.3353718,25.5824645 C23.3545504,26.2434478 23.5486098,26.9228576 23.9384888,27.4659841 C24.3932375,28.097193 24.9762592,28.5423852 25.7096658,28.8087124 C26.9968311,29.2830587 28.595621,28.8488494 29.4683749,27.79799 C29.9744621,27.1886374 30.256787,26.5026598 30.3228303,25.7145517 C30.3814661,25.0431328 30.1907804,24.3170181 29.846116,23.740505 C29.5050452,23.1712894 28.9843631,22.6714014 28.375599,22.3904425" id="Fill-4" fill="#FFFFFF"></path>
                <path d="M13.6103098,26.5440009 C13.6028657,26.5485619 13.5968151,26.5522472 13.5945415,26.5537432 C13.5032323,26.6134379 13.4080726,26.6655065 13.310676,26.7130871 C13.2142329,26.745598 13.1160663,26.7721249 13.0162861,26.7929597 C12.89036,26.801352 12.7654607,26.8014614 12.6408914,26.7931421 C12.5403778,26.7722344 12.4415144,26.7454521 12.3443746,26.7126492 C12.2545688,26.6688999 12.1663765,26.6213923 12.0800544,26.5683385 C12.0687232,26.5608219 12.0573554,26.5526121 12.0460243,26.5445482 C12.001103,26.5048855 11.957832,26.4649675 11.9150376,26.4223858 C11.87239,26.3799865 11.8324559,26.335398 11.7928152,26.2921595 C11.7882314,26.2847524 11.7845277,26.2786953 11.7830242,26.2764331 C11.7230315,26.1855775 11.6706662,26.0909272 11.6228846,25.9940146 C11.5892946,25.8953871 11.5620118,25.7950081 11.5408163,25.6928412 C11.5364525,25.6334385 11.5336656,25.5742546 11.5336656,25.5138667 C11.5336656,25.4534058 11.5364525,25.394222 11.5408163,25.3348192 C11.5620851,25.2322875 11.5895513,25.1315071 11.623288,25.0324782 C11.6672925,24.9431187 11.7150373,24.8553646 11.7683561,24.7694715 C11.7759102,24.7581966 11.784161,24.7469218 11.7923018,24.7356104 C11.8321259,24.6909489 11.8722433,24.6478564 11.9150376,24.6052747 C11.9576486,24.5628754 12.0024599,24.5231033 12.0459509,24.4836596 C12.0533584,24.4790986 12.0594456,24.4754498 12.0617192,24.4739537 C12.1530285,24.4142226 12.2481515,24.362154 12.3455847,24.3145734 C12.4420278,24.2820624 12.5401578,24.2555355 12.6399746,24.2347008 C12.7659007,24.2263085 12.8908001,24.2262355 13.0153327,24.2345183 C13.1158829,24.2554261 13.2147463,24.2822084 13.3118862,24.3150113 C13.401692,24.3587606 13.4898842,24.4062682 13.5762063,24.459322 C13.5875375,24.4668386 13.5988686,24.4750484 13.6102365,24.4831488 C13.6551577,24.5227749 13.6984288,24.562693 13.7412231,24.6052747 C13.7838341,24.6476739 13.8238048,24.6922625 13.8634455,24.7355375 C13.8679926,24.7429446 13.8716963,24.7489651 13.8732365,24.7512274 C13.9332293,24.8420829 13.9855579,24.9367333 14.0333761,25.0336459 C14.0660494,25.1296098 14.0927088,25.2273251 14.1136476,25.3266094 C14.1220818,25.4519098 14.1221551,25.576225 14.1138309,25.7001024 C14.0927821,25.8001529 14.0659027,25.8985251 14.0329361,25.9951822 C13.9889683,26.0845418 13.9411867,26.1722958 13.8879047,26.258189 C13.8803506,26.2695003 13.8720997,26.2807387 13.8639589,26.29205 C13.8241349,26.3367115 13.7840174,26.3798041 13.7412231,26.4223858 C13.6986121,26.464785 13.6538009,26.5045571 13.6103098,26.5440009 M13.6476769,26.6049934 C13.7148038,26.5361184 13.7692047,26.4810184 13.7692047,26.4846434 C13.7692047,26.5030101 13.7101408,26.5547267 13.6476769,26.6049934 M11.8162845,26.3293044 C11.8856768,26.3961443 11.940972,26.4501378 11.9373261,26.4501378 C11.9189754,26.4501378 11.8667185,26.3914114 11.8162845,26.3293044 M12.0842369,24.5070122 C12.0170129,24.5758872 11.9627091,24.6309872 11.9627091,24.6273622 C11.9627091,24.6091164 12.021773,24.5572789 12.0842369,24.5070122 M13.9248337,24.7735426 C13.8554413,24.7067994 13.8001462,24.6527093 13.803792,24.6527093 C13.8221427,24.6527093 13.8743996,24.7114357 13.9248337,24.7735426 M14.3756209,22.3904425 C13.642213,22.0511025 12.883136,21.959882 12.0873885,22.1094836 C10.5182625,22.4139044 9.39493838,23.8746355 9.33641244,25.4257478 C9.33432223,25.4547559 9.33307543,25.4840559 9.33337845,25.5138667 C9.33314877,25.5367813 9.33399219,25.5596594 9.335349,25.5824645 C9.35456428,26.2434478 9.54862399,26.9228576 9.93850358,27.4659841 C10.3932164,28.097193 10.9762756,28.5423852 11.7096835,28.8087124 C12.9968142,29.2830587 14.5956432,28.8488494 15.4683985,27.79799 C15.9744499,27.1886374 16.2568119,26.5026598 16.3228186,25.7145517 C16.3814912,25.0431328 16.1908052,24.3170181 15.8461035,23.740505 C15.5050689,23.1712894 14.9843493,22.6714014 14.3756209,22.3904425" id="Fill-6" fill="#FFFFFF"></path>
            </g>
        </g>
    </g>
</svg>