<?xml version="1.0" encoding="UTF-8"?>
<svg width="72px" height="41px" viewBox="0 0 72 41" version="1.1" xmlns="http://www.w3.org/2000/svg" xmlns:xlink="http://www.w3.org/1999/xlink">
    <!-- Generator: Sketch 55.1 (78136) - https://sketchapp.com -->
    <title>Delivery</title>
    <desc>Created with Sketch.</desc>
    <defs>
        <polygon id="path-1" points="0.0288333333 0.519612245 63.1875 0.519612245 63.1875 40.1628271 0.0288333333 40.1628271"></polygon>
    </defs>
    <g id="Page-1" stroke="none" stroke-width="1" fill="none" fill-rule="evenodd" opacity="0.610165551">
        <g id="Desktop-HD-1920" transform="translate(-437.000000, -674.000000)">
            <g id="Features" transform="translate(362.000000, 635.000000)">
                <g id="Free-Shipping">
                    <g id="Shipping_Icon" transform="translate(52.431122, 0.000000)">
                        <g id="Delivery" transform="translate(24.000000, 39.000000)">
                            <g id="Group-3" transform="translate(6.666667, 0.316955)">
                                <mask id="mask-2" fill="white">
                                    <use xlink:href="#path-1"></use>
                                </mask>
                                <g id="Clip-2"></g>
                                <path d="M60.5563333,32.2284265 L57.793,32.2284265 C57.0696667,28.6530592 53.5971667,26.3428347 50.0363333,27.0691204 C47.4471667,27.5971 45.4238333,29.6286918 44.898,32.2284265 L39.503,32.2284265 L39.503,21.6587939 L56.293,21.6587939 L60.5563333,23.7991612 L60.5563333,32.2284265 Z M51.3455,37.5124061 C49.1655,37.5124061 47.398,35.7385286 47.398,33.5496306 C47.398,31.3607327 49.1655,29.5860184 51.3455,29.5860184 C53.5255,29.5860184 55.293,31.3607327 55.293,33.5496306 C55.293,35.7385286 53.5255,37.5124061 51.3455,37.5124061 L51.3455,37.5124061 Z M39.503,11.0891612 L50.5296667,11.0891612 L54.4771667,19.0163857 L39.503,19.0163857 L39.503,11.0891612 Z M14.5021667,37.5124061 C12.323,37.5124061 10.5555,35.7385286 10.5555,33.5496306 C10.5555,31.3607327 12.323,29.5860184 14.5021667,29.5860184 C16.683,29.5860184 18.4505,31.3607327 18.4505,33.5496306 C18.4505,35.7385286 16.683,37.5124061 14.5021667,37.5124061 L14.5021667,37.5124061 Z M62.4646667,21.8043857 L57.5955,19.3460592 L52.5171667,9.17387551 C52.2938333,8.72956939 51.8413333,8.44842653 51.3455,8.44675306 L39.503,8.44675306 L39.503,1.84073265 C39.503,1.1111 38.9138333,0.519528571 38.1871667,0.519528571 L1.34466667,0.519528571 C0.618,0.519528571 0.0288333333,1.1111 0.0288333333,1.84073265 L0.0288333333,6.89963061 L2.6605,6.89963061 L2.6605,3.16193673 L36.8713333,3.16193673 L36.8713333,32.2284265 L20.9505,32.2284265 C20.3246667,29.1517531 17.6296667,26.9427735 14.5021667,26.9436102 C11.3755,26.9427735 8.6805,29.1517531 8.0555,32.2284265 L2.6605,32.2284265 L2.6605,18.1846714 L0.0288333333,18.1846714 L0.0288333333,33.5496306 C0.0288333333,34.2792633 0.618,34.8708347 1.34466667,34.8708347 L8.0555,34.8708347 C8.778,38.446202 12.2513333,40.7555898 15.8121667,40.0293041 C18.4013333,39.5013245 20.4246667,37.4705694 20.9505,34.8708347 L44.898,34.8708347 C45.6213333,38.446202 49.0938333,40.7555898 52.6546667,40.0293041 C55.2438333,39.5013245 57.2671667,37.4705694 57.793,34.8708347 L61.8721667,34.8708347 C62.5988333,34.8708347 63.188,34.2792633 63.188,33.5496306 L63.188,22.979998 C63.1863333,22.4829776 62.9063333,22.0277939 62.4646667,21.8043857 L62.4646667,21.8043857 Z" id="Fill-1" fill="#000000" mask="url(#mask-2)"></path>
                            </g>
                            <path d="M12.03425,18.6493939 L0.41675,18.6493939" id="Stroke-4" stroke="#000000" stroke-width="3" stroke-linecap="round" stroke-linejoin="round"></path>
                            <path d="M12.03425,12.4429143 L4.98008333,12.4429143" id="Stroke-6" stroke="#000000" stroke-width="3" stroke-linecap="round" stroke-linejoin="round"></path>
                        </g>
                    </g>
                </g>
            </g>
        </g>
    </g>
</svg>