<?xml version="1.0" encoding="UTF-8"?>
<svg width="57px" height="54px" viewBox="0 0 57 54" version="1.1" xmlns="http://www.w3.org/2000/svg" xmlns:xlink="http://www.w3.org/1999/xlink">
    <!-- Generator: Sketch 55.1 (78136) - https://sketchapp.com -->
    <title>Support</title>
    <desc>Created with Sketch.</desc>
    <g id="Page-1" stroke="none" stroke-width="1" fill="none" fill-rule="evenodd" opacity="0.599283854" stroke-linecap="round" stroke-linejoin="round">
        <g id="Desktop-HD-1920" transform="translate(-1581.000000, -667.000000)" stroke="#000000">
            <g id="Features" transform="translate(362.000000, 635.000000)">
                <g id="Support" transform="translate(1116.000000, 0.000000)">
                    <g id="Support_Icon" transform="translate(73.219149, 0.000000)">
                        <g id="Support" transform="translate(31.000000, 33.000000)">
                            <path d="M30.2007595,36.989225 C29.818655,36.6068083 29.2005767,36.6068083 28.8184722,36.989225 L26.1697195,39.6390583 C24.589344,41.2218083 20.1350664,39.3281417 16.2209309,35.409725 C12.3067954,31.493475 10.4146746,27.034475 11.9961326,25.4528083 L14.6438028,22.802975 C15.0248248,22.4205583 15.0248248,21.8008917 14.6438028,21.418475 L6.70728686,13.4765583 C6.32518237,13.0941417 5.707104,13.0941417 5.32499951,13.4765583 L1.61652931,17.186975 C-2.04214824,20.849725 2.33635788,31.1695583 11.3975383,40.2381417 C20.4587187,49.306725 30.7701277,53.6888083 34.4288052,50.0271417 L38.1372754,46.3156417 C38.5193799,45.933225 38.5193799,45.3135583 38.1372754,44.932225 L30.2007595,36.989225 Z" id="Stroke-1" stroke-width="2.6"></path>
                            <path d="M53.5172518,2.26005 L53.5172518,21.6463 C53.5172518,22.7144667 52.6512926,23.5811333 51.5839979,23.5811333 L35.0311881,23.5811333 L26.5837562,32.0354667 L26.5837562,23.5811333 L22.1392207,23.5811333 C21.0708436,23.5811333 20.2059669,22.7144667 20.2059669,21.6463 L20.2059669,2.26005 C20.2059669,1.19188333 21.0708436,0.325216667 22.1392207,0.325216667 L51.5839979,0.325216667 C52.6512926,0.325216667 53.5172518,1.19188333 53.5172518,2.26005 Z" id="Stroke-3" stroke-width="2.6"></path>
                            <path d="M33.7535736,6.315725 C34.7678282,5.629975 35.9909956,5.22914167 37.3072536,5.22914167 C40.8176356,5.22914167 43.663394,8.077225 43.663394,11.590475 C43.663394,15.103725 40.8176356,17.9518083 37.3072536,17.9518083 C33.7968715,17.9518083 30.9511131,15.103725 30.9511131,11.590475 L29.617536,13.6953917" id="Stroke-5" stroke-width="1.6"></path>
                            <path d="M37.1155518,12.0328 L37.1155518,8.4903" id="Stroke-7" stroke-width="1.6"></path>
                            <path d="M39.5383974,12.0328 L37.1158766,12.0328" id="Stroke-9" stroke-width="1.6"></path>
                        </g>
                    </g>
                </g>
            </g>
        </g>
    </g>
</svg>