<?xml version="1.0" encoding="UTF-8"?>
<svg width="72px" height="45px" viewBox="0 0 72 45" version="1.1" xmlns="http://www.w3.org/2000/svg" xmlns:xlink="http://www.w3.org/1999/xlink">
    <!-- Generator: Sketch 55.1 (78136) - https://sketchapp.com -->
    <title>100%_Safe</title>
    <desc>Created with Sketch.</desc>
    <defs>
        <polygon id="path-1" points="0.948902692 0.17795 26.954 0.17795 26.954 31 0.948902692 31"></polygon>
    </defs>
    <g id="Page-1" stroke="none" stroke-width="1" fill="none" fill-rule="evenodd" opacity="0.602097284">
        <g id="Desktop-HD-1920" transform="translate(-1191.000000, -672.000000)">
            <g id="Features" transform="translate(362.000000, 635.000000)">
                <g id="Payment-Secure" transform="translate(744.000000, 0.000000)">
                    <g id="PaymentSecure" transform="translate(59.927885, 0.000000)">
                        <g id="100%_Safe" transform="translate(26.000000, 37.000000)">
                            <g id="Group-12" transform="translate(44.000000, 13.942600)">
                                <mask id="mask-2" fill="white">
                                    <use xlink:href="#path-1"></use>
                                </mask>
                                <g id="Clip-11"></g>
                                <path d="M13.9464,28.1717 C3.4264,24.2897 3.5864,15.8177 3.7294,8.3537 L3.7294,7.3177 C7.4664,7.2247 11.0604,5.8657 13.9244,3.4647 C16.7894,5.8657 20.3834,7.2247 24.1194,7.3177 L24.1194,8.3537 C24.3074,15.8127 24.4724,24.2897 13.9464,28.1717 M26.8884,5.9417 C26.8884,5.1817 26.2724,4.5657 25.5124,4.5657 C21.0204,4.5657 17.7504,3.3327 14.9094,0.5687 C14.3754,0.0477 13.5234,0.0477 12.9884,0.5687 C10.1484,3.3217 6.8784,4.5657 2.3854,4.5657 C1.6264,4.5657 1.0094,5.1817 1.0094,5.9417 C1.0094,6.6907 1.0094,7.4667 0.9824,8.2647 C0.8334,15.9717 0.6354,26.4647 13.5004,30.9237 C13.7934,31.0257 14.1114,31.0257 14.4034,30.9237 C27.2684,26.4647 27.0654,15.9447 26.9224,8.2647 C26.9004,7.4727 26.8884,6.6957 26.8884,5.9417" id="Fill-10" fill="#000000" mask="url(#mask-2)"></path>
                            </g>
                            <path d="M60.8532,25.94 L56.5482,30.234 L55.0402,28.726 C54.5012,28.188 53.6292,28.188 53.0912,28.726 C52.5532,29.264 52.5532,30.136 53.0912,30.674 L55.5742,33.157 C56.1102,33.695 56.9822,33.696 57.5202,33.16 C57.5212,33.159 57.5222,33.158 57.5222,33.157 L62.8022,27.878 C63.3072,27.31 63.2562,26.44 62.6872,25.935 C62.1642,25.469 61.3742,25.472 60.8532,25.94" id="Fill-13" fill="#000000"></path>
                            <g id="Group-15" fill="#000000">
                                <path d="M44.092827,37.3044006 L4.00843882,37.3044006 C3.27088608,37.3044006 2.67229255,36.7005863 2.67229255,35.9566008 L2.67229255,4.04339915 C2.67229255,3.29671811 3.27088608,2.69559943 4.00843882,2.69559943 L52.9915612,2.69559943 C53.7291139,2.69559943 54.3277075,3.29671811 54.3277075,4.04339915 L54.3277075,9.73111396 C54.3410689,10.4670126 54.9316456,11.0627401 55.6638537,11.0789137 C56.4014065,11.0789137 57,10.4724038 57,9.73111396 L57,4.04339915 C57,1.80874722 55.2042194,0 52.9915612,0 L4.00843882,0 C1.7931083,0 0,1.80874722 0,4.04339915 L0,35.9566008 C0,38.1912528 1.7931083,40 4.00843882,40 L44.092827,40 C44.8303797,40 45.4289733,39.3961857 45.4289733,38.6522003 C45.4156118,37.9163016 44.8223629,37.3205742 44.092827,37.3044006" id="Fill-1"></path>
                                <path d="M39.8707242,11.4755003 C39.867854,10.8964721 40.1548766,10.3470686 40.6456853,9.99426532 L40.6456853,10.128923 C40.4964335,10.5652141 40.4189374,11.0176641 40.413197,11.4755003 C40.4189374,11.9252571 40.4964335,12.3696276 40.6456853,12.7951461 C40.1864491,12.4854333 39.9022967,12.0033586 39.8707242,11.4755003 M47.1295259,11.4755003 C47.1295259,12.4854333 46.2598474,13.3068454 45.1806424,13.3068454 C44.1416206,13.228744 43.3236062,12.4477291 43.257591,11.4755003 C43.2231483,11.2789 43.2231483,11.0796066 43.257591,10.8830063 C43.435545,10.4844194 43.7483996,10.1531614 44.1444908,9.94040223 C44.425773,9.75726772 44.7529788,9.65492784 45.0916654,9.64415523 C45.6283977,9.61453053 46.1507789,9.79497188 46.5382594,10.1423888 C46.9257399,10.4898058 47.1410068,10.9718804 47.1295259,11.4755003 M45.1806424,15.9192054 C47.8097695,15.9192054 49.9566986,13.9424299 49.9998774,11.4755003 C50.0112329,9.99157216 49.2334017,8.60190441 47.9245786,7.76971965 C46.6186257,6.93484173 44.9538946,6.7705593 43.4872091,7.3280423 C42.0233938,6.76786615 40.3615329,6.93214858 39.05558,7.76702649 C37.7496272,8.60190441 36.9775363,9.99426532 37.0004982,11.4755003 C37.0004982,13.9747478 39.1589082,16 41.8224779,16 C42.3965232,15.9757616 42.9619577,15.8491833 43.4872091,15.6229584 C44.0268116,15.8195586 44.5979866,15.9192054 45.1806424,15.9192054" id="Fill-3"></path>
                                <path d="M11.1583012,13 L14.8416988,13 C15.4764479,12.99 15.988417,12.548 16,12 C16,11.448 15.4810811,11 14.8416988,11 L11.1583012,11 C10.5189189,11 10,11.448 10,12 C10,12.552 10.5189189,13 11.1583012,13" id="Fill-5"></path>
                                <path d="M11.3100437,25 L14.6899563,25 C15.4131004,25 16,24.552 16,24 C15.9868996,23.452 15.4078603,23.01 14.6899563,23 L11.3100437,23 C10.5868996,23 10,23.448 10,24 C10,24.552 10.5868996,25 11.3100437,25" id="Fill-7"></path>
                                <path d="M31,24 C31,23.448 30.4147268,23 29.6935867,23 L21.3064133,23 C20.5904988,23.01 20.0130641,23.452 20,24 C20,24.552 20.5852732,25 21.3064133,25 L29.6935867,25 C30.4147268,25 31,24.552 31,24" id="Fill-9"></path>
                                <path d="M39.8636364,23 L37.1363636,23 C36.5136364,23.01 36.0136364,23.452 36,24 C36,24.552 36.5090909,25 37.1363636,25 L39.8636364,25 C40.4909091,25 41,24.552 41,24 C41,23.448 40.4909091,23 39.8636364,23" id="Fill-11"></path>
                                <path d="M11.2844037,32 L22.7155963,32 C23.4245872,32 24,31.552 24,31 C23.987156,30.452 23.4194495,30.01 22.7155963,30 L11.2844037,30 C10.5754128,30 10,30.448 10,31 C10,31.552 10.5754128,32 11.2844037,32" id="Fill-13"></path>
                            </g>
                        </g>
                    </g>
                </g>
            </g>
        </g>
    </g>
</svg>