<?xml version="1.0" encoding="UTF-8"?>
<svg width="49px" height="43px" viewBox="0 0 49 43" version="1.1" xmlns="http://www.w3.org/2000/svg" xmlns:xlink="http://www.w3.org/1999/xlink">
    <!-- Generator: Sketch 55.1 (78136) - https://sketchapp.com -->
    <title>Credit</title>
    <desc>Created with Sketch.</desc>
    <defs>
        <polygon id="path-1" points="0 0.0311989337 48 0.0311989337 48 43 0 43"></polygon>
    </defs>
    <g id="Page-1" stroke="none" stroke-width="1" fill="none" fill-rule="evenodd" opacity="0.599562872">
        <g id="Desktop-HD-1920" transform="translate(-844.000000, -669.000000)">
            <g id="Features" transform="translate(362.000000, 635.000000)">
                <g id="Free-Returnes" transform="translate(411.000000, 0.000000)">
                    <g id="Discount_Icon" transform="translate(33.429012, 0.000000)">
                        <g id="Credit" transform="translate(38.000000, 34.000000)">
                            <g id="Group-3">
                                <mask id="mask-2" fill="white">
                                    <use xlink:href="#path-1"></use>
                                </mask>
                                <g id="Clip-2"></g>
                                <path d="M44.0236686,19.545469 L34.7928994,19.545469 C33.9408284,19.545469 33.3727811,20.1245936 33.3727811,20.9932805 L33.3727811,26.3501828 C33.3727811,27.2188697 33.9408284,27.9427754 34.7928994,27.9427754 L44.0236686,27.9427754 C44.8757396,27.9427754 45.5857988,27.2188697 45.5857988,26.3501828 L45.5857988,20.9932805 C45.5857988,20.1245936 44.8757396,19.545469 44.0236686,19.545469 L44.0236686,19.545469 Z M34.0828402,4.34344882 L39.6213018,4.34344882 C41.7514793,4.34344882 43.4556213,6.2256037 43.4556213,8.39732088 L43.4556213,15.491597 C43.4556213,16.0707215 43.4556213,16.505065 43.1715976,17.0841896 L44.0236686,17.0841896 C46.1538462,17.0841896 48,18.8215633 48,20.9932805 L48,26.3501828 C48,28.5219 46.1538462,30.4040549 44.0236686,30.4040549 L43.1715976,30.4040549 C43.4556213,30.8383983 43.4556213,31.4175229 43.4556213,31.9966475 L43.4556213,39.0909236 C43.4556213,41.2626407 41.7514793,43.0000145 39.6213018,43.0000145 L3.97633136,43.0000145 C1.84615385,43.0000145 0,41.2626407 0,39.0909236 L0,8.39732088 C0,6.2256037 1.84615385,4.34344882 3.97633136,4.34344882 L22.0118343,4.34344882 L30.816568,0.144795623 C31.3846154,-0.144766667 32.0946746,0.144795623 32.3786982,0.723920202 L34.0828402,4.34344882 Z M36.3550296,8.97644545 L41.183432,8.97644545 L41.183432,8.39732088 C41.183432,7.52863401 40.4733728,6.80472828 39.6213018,6.80472828 L35.2189349,6.80472828 L36.3550296,8.97644545 Z M18.035503,8.97644545 L33.6568047,8.97644545 L30.6745562,2.89563737 L18.035503,8.97644545 Z M36.7810651,17.0841896 L40.0473373,16.9394084 C40.6153846,16.7946273 41.183432,16.2155027 41.183432,15.491597 L41.183432,11.4377249 L5.96449704,11.4377249 C5.25443787,11.4377249 4.68639053,10.8586003 4.68639053,10.2794758 C4.68639053,9.55557003 5.25443787,8.97644545 5.96449704,8.97644545 L12.4970414,8.97644545 L17.0414201,6.80472828 L3.97633136,6.80472828 C3.12426036,6.80472828 2.41420118,7.52863401 2.41420118,8.39732088 L2.41420118,39.0909236 C2.41420118,39.9596104 3.12426036,40.6835162 3.97633136,40.6835162 L39.6213018,40.6835162 C40.4733728,40.6835162 41.183432,39.9596104 41.183432,39.0909236 L41.183432,31.9966475 C41.183432,31.1279606 40.4733728,30.4040549 39.6213018,30.4040549 L34.7928994,30.4040549 C32.6627219,30.4040549 30.9585799,28.6666811 30.9585799,26.3501828 L30.9585799,20.9932805 C30.9585799,17.3737519 33.9408284,17.0841896 36.7810651,17.0841896 L36.7810651,17.0841896 Z" id="Fill-1" fill="#000000" mask="url(#mask-2)"></path>
                            </g>
                            <path d="M37,22 C38.1046154,22 39,22.8953846 39,24 C39,25.1046154 38.1046154,26 37,26 C35.8953846,26 35,25.1046154 35,24 C35,22.8953846 35.8953846,22 37,22" id="Fill-4" fill="#000000"></path>
                        </g>
                    </g>
                </g>
            </g>
        </g>
    </g>
</svg>