<svg 
 xmlns="http://www.w3.org/2000/svg"
 xmlns:xlink="http://www.w3.org/1999/xlink"
 width="18px" height="18px">
<path fill-rule="evenodd"  fill="rgb(255, 255, 255)"
 d="M11.710,11.000 L12.500,11.000 L17.490,16.000 L16.000,17.490 L11.000,12.500 L11.000,11.710 L10.730,11.430 C9.590,12.410 8.110,13.000 6.500,13.000 C2.910,13.000 -0.000,10.090 -0.000,6.500 C-0.000,2.910 2.910,-0.000 6.500,-0.000 C10.090,-0.000 13.000,2.910 13.000,6.500 C13.000,8.110 12.410,9.590 11.430,10.730 L11.710,11.000 ZM6.500,2.000 C4.010,2.000 2.000,4.010 2.000,6.500 C2.000,8.990 4.010,11.000 6.500,11.000 C8.990,11.000 11.000,8.990 11.000,6.500 C11.000,4.010 8.990,2.000 6.500,2.000 Z"/>
</svg>