<?xml version="1.0" encoding="UTF-8"?>
<svg width="20px" height="16px" viewBox="0 0 20 16" version="1.1" xmlns="http://www.w3.org/2000/svg" xmlns:xlink="http://www.w3.org/1999/xlink">
    <!-- Generator: Sketch 55.1 (78136) - https://sketchapp.com -->
    <title>Twitter</title>
    <desc>Created with Sketch.</desc>
    <g id="Page-1" stroke="none" stroke-width="1" fill="none" fill-rule="evenodd" opacity="1">
        <g id="Desktop-HD-1920" transform="translate(-1877.000000, -6589.000000)" fill="#ffffff" fill-rule="nonzero">
            <g id="Footer" transform="translate(0.000000, 6449.000000)">
                <g id="Socnetworks" transform="translate(1694.000000, 138.000000)">
                    <path d="M200.929688,6 C200.955729,6.1025643 200.96875,6.26923077 200.96875,6.5 C200.96875,8.34615385 200.513021,10.1282049 199.601562,11.8461538 C198.664062,13.6666665 197.348958,15.1153846 195.65625,16.1923077 C193.807292,17.3974357 191.684896,18 189.289062,18 C186.997396,18 184.901042,17.3974357 183,16.1923077 C183.286458,16.2179489 183.611979,16.2307692 183.976562,16.2307692 C185.877604,16.2307692 187.583333,15.6538462 189.09375,14.5 C188.182292,14.5 187.381511,14.2371797 186.691406,13.7115385 C186.001302,13.1858972 185.526042,12.5256412 185.265625,11.7307692 C185.526042,11.7564105 185.773438,11.7692308 186.007812,11.7692308 C186.372396,11.7692308 186.736979,11.7307692 187.101562,11.6538462 C186.164062,11.4487181 185.382812,10.9743588 184.757812,10.2307692 C184.132812,9.48717968 183.820312,8.64102584 183.820312,7.69230769 L183.820312,7.61538462 C184.393229,7.94871814 185.005208,8.12820493 185.65625,8.15384615 C185.109375,7.76923077 184.666667,7.28205109 184.328125,6.69230769 C183.989583,6.1025643 183.820312,5.45512801 183.820312,4.75 C183.820312,4.04487199 184.015625,3.37179507 184.40625,2.73076923 C185.421875,3.98717968 186.665364,4.98717968 188.136719,5.73076923 C189.608073,6.47435878 191.177083,6.88461538 192.84375,6.96153846 C192.791667,6.65384615 192.765625,6.34615385 192.765625,6.03846154 C192.765625,5.32051262 192.947917,4.6474357 193.3125,4.01923077 C193.677083,3.39102584 194.171875,2.8974357 194.796875,2.53846154 C195.421875,2.17948738 196.098958,2 196.828125,2 C197.427083,2 197.980469,2.11538462 198.488281,2.34615385 C198.996094,2.57692308 199.445312,2.88461538 199.835938,3.26923077 C200.773438,3.08974339 201.645833,2.76923077 202.453125,2.30769231 C202.140625,3.25641045 201.541667,4 200.65625,4.53846154 C201.4375,4.43589724 202.21875,4.21794891 203,3.88461538 C202.427083,4.70512801 201.736979,5.41025661 200.929688,6 Z" id="Twitter"></path>
                </g>
            </g>
        </g>
    </g>
</svg>